<?xml version="1.0" encoding="utf-8"?>
<!-- Generator: Adobe Illustrator 26.3.1, SVG Export Plug-In . SVG Version: 6.00 Build 0)  -->
<svg version="1.1" id="Layer_1" xmlns="http://www.w3.org/2000/svg" xmlns:xlink="http://www.w3.org/1999/xlink" x="0px" y="0px"
	 width="427.1px" height="170.9px" viewBox="0 0 427.1 170.9" style="enable-background:new 0 0 427.1 170.9;" xml:space="preserve"
	>
<style type="text/css">
	.st0{fill:#B39340;}
	.st1{fill:#044E7D;}
</style>
<g>
	<path class="st0" d="M417,103.6c-3.7,1.7-12,4-18.4,4c-3.2,0-6.4-0.8-9-2.7c0,0,0-0.1,0.1-0.1c1.7-3.1,4.3-5.8,4.8-6.3
		c0.5-0.4,3-1.6,5.2-2c2.3-0.5,7.2,1.7,7.9,1.8c0.6,0.1,0.9,0.4,2.1,0.8c1.2,0.3,5.4,2.3,6.4,2.9c0.3,0.3,0.7,0.5,1,0.8
		C417.3,103.3,417.4,103.4,417,103.6 M381.4,142.4c0.5,0.2,2.6,0.2,2.3,1.2c-0.1,0.5-0.6,0.8-1,1.1c-0.7,0.5-1.4,1.1-2,1.6
		c-0.9,0.7-2,1.3-2.8,2c-0.4,0.4-0.9,0.9-1.4,1l-0.1,0c-0.5,0.2-0.9,0.1-1.6,0.1c-0.7,0-0.7,0.4-1.2,0.7c-0.4,0.2-0.9,0.3-1.3,0.5
		c-0.1,0.1-0.2,0-0.3,0c-0.6-1-1.4-3.7-3-3.1c-1.2,0.4-1.9,1.8-3.2,1.8c-0.1,0-0.2,0-0.2-0.1c-0.2-1.5,0-2.9,0.1-4.4
		c0-1.1-0.1-2.2-0.1-3.3c-0.1-0.3-0.1-0.5,0-0.7l0-0.1c0-0.1,0-0.2,0-0.3c0-0.1,0.1-0.2,0.2-0.2c0.1,0,0.3,0,0.4,0.1
		c0.6-0.2,1.5-0.1,1.9,0c2.3,0.6,4.5,0.8,6.8,1C377.3,141.5,379.3,141.8,381.4,142.4 M364.6,94.8c-0.4,0.2-0.9,0.3-1.4,0.5
		c-0.8-1.4-0.4-4-0.3-4.3c0.1-0.3-0.1-2.8-0.3-3.1c-0.4-0.5-0.3-1.4-0.3-2c0-0.5-0.1-1-0.1-1.5c0-0.5,0.1-0.8,0.2-1.3
		c0.2-1-0.5-1.9,0-2.8c0.5-1,1.3-1.8,2-2.7c0.5-0.8,1.1-1.5,1.9-2c1-0.5,2.1-0.1,2.9-1c0.3-0.3,0.5-0.2,0.5,0.1
		c0.2,2.3-0.4,4.4-1.1,6.5c-0.3,1-0.5,2-1,2.9c-0.7,1.2-1.5,2.3-0.9,3.7c0.4,1,1.3,1.8,1.6,2.1c-0.3,0.7-0.2,0.9-1,1.6
		c-0.9,0.7-1.8,1.5-2.2,2.7C365.1,94.4,364.9,94.6,364.6,94.8 M311.2,144.4c-1.9-1.2-1-3.5,0-4.9c0.2-0.3,0.5-0.2,0.5,0
		c0.2,0.8,0.3,1.6,0.3,2.4c0,0.5,0.2,1.1,0.2,1.6C312.3,144.2,311.8,144.7,311.2,144.4 M426.4,96.1c-0.3-0.2-0.7-0.3-1-0.5
		c-1.6-1.1-2.5-2.9-4-4.1c-0.4-0.3-0.8-0.6-1.1-1c-0.3-0.5-0.6-1.2-1.3-1.3c-0.8-0.2-1.3-0.5-2-1c-0.8-0.8-1.6-1.6-2.3-2.5
		c-0.7-0.8-1.3-1.8-2.2-2.5c-0.9-0.7-1.6-1.4-2.3-2.2c-0.8-0.9-1.7-1.3-2.7-1.9c-0.7-0.4-1.3-1.3-2.1-1.5c-0.8-0.3-1.7-0.9-2.6-1
		c-0.4-0.1-0.8-0.1-1.2-0.1c-0.3,0-0.6,0-0.8,0c-0.7,0-1.3-0.4-1.8-0.7c-0.3-0.2-0.6-0.4-0.9-0.6c-0.5-0.3-0.9-0.3-1.5-0.4
		c-0.6-0.1-1.1-0.3-1.6-0.7c-0.5-0.4-1-1-1.5-1.3c-1-0.5-0.9,2.3-0.7,2.7c0.4,1.1,1.4,1.3,2,2.2c0.7,1.2-1.4,1.7-2,1.9
		c-1.1,0.4-2.1,0.9-3.2,1.5c-0.6,0.3-1.2,0.6-1.8,0.8c-0.5,0.3-1.2,0.4-1.7,0.7c-0.8,0.5-1.2,0.4-1.9,1.1c-1.1,1.1-1.9,0.3-4.4,2.3
		c-1,0.8-2.8,1.2-4.1,2c-0.8,0.5-1.7,1-2.6,1.7c-0.1-0.2-0.1-0.4-0.1-0.6c0.1-0.6,0.1-1.3-0.6-1.7c-0.5-0.3-0.9-0.7-1-1.4
		c-0.4-1.9,0.9-3.7,1.8-5.2c1.1-2,1.7-4.2,2.8-6.2c0.6-1.1,1.2-1.2,1.2-1.7c0.1-2.3-0.8-4-1.9-5.6c-0.7-0.8-1.3-1.8-2-2.6
		c-0.8-0.9-1.8-1.1-2.9-1.5c-0.8-0.3-2.5-1-2.6-2c-0.1-0.7,2.8-0.5,3.2-0.5c1.9-0.3,1.9-2.1,0.7-3.2c-0.5-0.5-1.2-1.1-1.4-1.9
		c-0.3-1.2,0-2.4-0.3-3.6c-0.3-1-0.8-1.9-1.6-2.6c-1.8-1.6-4.2-2.4-6.6-1.9c-1.1,0.2-2.1,0.5-3,1.3c-1,0.9-1.3,2.8-2,4.2
		c0,0.1-0.2,0.1-0.3,0.1c-0.8-0.3-1.2-1-1.8-1.6c-0.7-0.6-1.3-1.4-2.2-1.8c-0.7-0.4-1.3-0.5-2-0.6c-0.4-0.1-0.8-0.2-1.1-0.5
		c-0.5-0.6-0.7-1.4-1.2-1.9c-0.5-0.5-1-0.9-1.4-1.4c-0.5-0.7-0.7-1.4-1.1-2.2c-0.3-0.7-0.7-1-1.3-1.3c-0.5-0.3-1.1-0.1-1.5-0.6
		c-0.6-0.6-1.1-1.2-1.7-1.7c-1.2-1.2-2.6-2.4-3.4-3.8c-0.3-0.5,0.3-1.2-0.3-1.5c-0.5-0.3-0.9-0.5-1.2-0.9c-0.6-0.8,0.9-2.2,1.4-2.8
		c0.1-0.2,0.2-0.6,0.3-0.8c0.2-0.8,0.3-1.5,0.2-2.2L402.3,5c0.8,0.6,3.6,2.7,4.5,2.6c1.2-0.1,1.7-1.2,1-1.8c-0.9-0.8-7-5.3-7.7-5.6
		c-0.5-0.2-1.1-0.4-1.5,0c-0.6,0.7-0.6,1-0.3,1.4c0.4,0.6,1.9,1.8,2.4,2.2l-63.4,21.5c-0.1-0.1-0.2-0.2-0.3-0.3
		c-0.2-0.2-0.5-0.3-0.7-0.4c-0.9-0.4-1.4,0.1-2.1,0.6c-0.4,0.3-0.9,0.5-1.3,0.9c-0.2,0.2-0.4,0.4-0.7,0.5c-0.7,0.2-1.6,0.6-2.1,1.1
		c-0.2,0.1-0.7,0.7-0.8,0.8c-0.1,0.2-0.2,0.3-0.4,0.5c-0.9,0.7-0.6,1.6,0.5,1.7c0.4,0,0.8,0,1,0.3c0.5,0.4,0.4,1,0.2,1.6
		c-0.1,1.1,0.4,2.7,0.9,3.5c0.6,0.9,1.4,0.9,2.2,1.4c0.2,0.2,0.6-0.1,0.7,0.2c0.6,1.7,1.6,3.1,2.5,4.6c0.5,0.9,1.2,2.2,2,3
		c0.1,0.1,0.2,0.2,0.3,0.4c0.2,0.3,0.2,0.6,0.1,1c-0.1,0.8-0.1,1.5,0.2,2.3c0.5,1.3,1.1,2.5,1.4,3.9c0.3,1.5,1.3,3,2.1,4.4
		c0.6,1,1.4,2,1.7,3.2c0.4,1.4,0.3,3.1,0.1,4.6c-0.1,1.2-0.7,2.1-1,3.3c-0.4,1.5-0.5,3.2-0.6,4.7c-0.1,0.6-0.3,0.9-0.8,1.2
		c-1.2,0.7-1.3,2.2-1.9,3.4c-0.5,1.1-1.1,1.8-2,2.6c-0.6,0.5-0.4,1.4-0.4,2.2c0,0.6-0.2,1.1-0.3,1.6c-0.1,0.5-0.2,1.1-0.4,1.6
		c-0.2,0.6-0.3,1.3-0.4,2c-0.2,1.2-0.7,2.4-1.1,3.6c0,0.2-0.1,0.3-0.1,0.5c-1.3,0.6-2.9-0.5-3.2-0.9c-0.9-1-2-1.7-3-2.6
		c-0.5-0.4-1.1-1.1-1.8-1.3c-0.3-0.1-0.7-0.2-1,0c-0.4,0.3-0.2,1,0,1.4c0.3,0.5,0.7,0.9,1,1.4c-0.5,0.3-0.9,0.9-0.5,1.6
		c0.1,0.4,0.4,0.6,0.6,0.8c-0.1,0.2-0.1,0.3-0.2,0.5c-0.2,0.7-0.1,1.5,0,2.2c0,0.2-0.2,0.2-0.3,0.2c-0.1-0.1-0.4-0.2-0.5-0.2
		c-0.7-0.1-1.7-0.3-2.4-0.4c-1.2-0.3-2.3-0.6-3.5-0.8c-1.1-0.2-2.1-0.3-3.2-0.5l-0.1,0c-0.2,0-0.4-0.1-0.6-0.1c0,0-3.7-0.4-5.5-0.5
		c-1-0.1-2.1-0.3-3.1-0.3c-0.9,0-1.8,0.2-2.6,0.3c-2,0.3-3.6,0.8-5.4,1.8c-1.5,0.9-3.1,1.6-4.5,2.6c-1,0.7-2.1,1.3-3,2.1
		c-0.4,0.4-1,0.9-1.4,1.1c-1.1,0.6-2,1.4-3,1.9c-0.2,0.1-0.5,0.2-0.7,0.2c-1.4,1.5-2.5,3.1-4,4.6c0,0,0,0,0,0
		c-0.2,0.6-0.4,1.2-0.5,1.7c0,0,0,0,0,0c0,0,0.1-0.1,0.1-0.1c-0.1,0.3-0.2,0.7-0.2,1.1c-0.4,0.4-0.9,0.7-1.1,1.3
		c-0.2,0.6-0.3,1.7-0.5,2.2c-0.2,0.5-0.7,0.9-0.9,1.4c-0.3,1,0.1,1.4-0.6,2.1c-0.5,0.5-0.7,1.5-0.6,2.2c0,0,0,0.1,0,0.1
		c-0.8,0.7-1.1,1.7-1.2,2.8c-0.2,0.3-0.3,0.7-0.2,1c0,0,0,0,0,0.1c0.2,2,2.1,3.4,4,2.4c1.7-0.8,1.1-2.8,0.6-4.4
		c0.5-0.3,0.8-0.9,1-1.5c0.2-0.7,0.2-1.6,0.1-2.5c1-0.5,1.4-1.6,1.5-2.7c1.1-0.7,1.3-2,1.3-3.3c0.4-0.2,0.8-0.3,1-0.6
		c-0.1,0.4-0.2,0.8-0.2,1.2c-0.3,1.8-0.6,3.7-0.2,5.5c0.4,1.6,1.1,3.4,2.3,4.7c0.8,0.8,1.1,1.9,2,2.5c0.3,0.2,0.8,0.4,1,0.6
		c0.5,0.4,0.9,0.8,1.4,1.2c0.9,0.8,1.9,1.3,2.9,1.9c1.1,0.6,2.2,1.2,3.3,1.6c0.7,0.3,1.6,0.6,2.2,1c0.1,0.1,0.4,0.2,0.5,0.3
		c1.2,0.5,2.2,0.7,1.7,2.2c-0.2,0.8-0.8,1.5-1.2,2.3c-0.5,1-0.9,2-1.5,2.9c-1,1.6-2.8,3-3.2,4.9c-0.2,1.2,0.1,2.5,1.3,3.1
		c0.8,0.4,1.7,0.3,2.6,0.5c0.9,0.2,1.7,0.6,2.5,1.1c0.8,0.5,1.8,0.9,2.6,1.4c0.8,0.5,1.7,1.2,2.7,1.4c0.4,0.1,0.8,0.3,1.3,0.3
		c0.3,0,0.6,0,0.9,0.4c1,1.4,3.1,2.1,4.6,2.7c1.1,0.3,2.3,0.8,3.1,1.7l0.1,0c0.1,0,0.3,0.2,0.3,0.3v0.1c0.1,0.2,0.1,0.3,0.1,0.5
		c0.1,0.3,0.4,0.4,0.9,0.5c0.8,0.2,2,0.5,2.6,1c0.4,0.4,0,0.8-0.1,1.2c-0.5,1.7,0.2,3,1.5,4.1c0.4,0.3,0.7,0.6,1,1
		c0.3,0.5,0.7,1.1,1.1,1.5c0.3,0.3,0.8,0.5,1.3,0.7c0.9,0.3,1.3-0.6,1.3-1.4c0.1-1.1,0.1-2.2-0.1-3.3c0-0.2,0.2-0.3,0.3-0.1
		c1,1.7,2.7,2.5,4.4,3.4c0.4,0.2,0.8,0.5,1.2,0.8c0.6,0.4,0.9,0.4,1.4,0c0.6-0.5,1.2,0.3,1.7,0.4c0.5,0.1,1.3,0.3,1.4,1.1
		c0,0.5-0.1,0.8-0.2,1.3c-0.2,1.1,0.6,0.9,1.1,1.5c0.2,0.2,0.2,0.5,0.4,0.7c0.2,0.3,0.8,0.1,1.1,0c0.4-0.1,0.9-0.1,1.4-0.2
		c1-0.1,2.1-0.1,3.1,0c0.5,0,1.3,0.1,1.7-0.1c0.7-0.5,0.5-1.2,0-1.7c-0.6-0.6-1.3-1-1.9-1.6c-0.9-0.9-1.8-1.9-2.9-2.7
		c-0.9-0.7-2-1.1-2.9-1.8c-0.8-0.6-1.3-1.6-2.1-2.3c-0.9-0.7-1.9-1.3-2.9-1.9c-1-0.6-2.1-1.1-3.1-1.8c-0.9-0.6-1.5-1.6-2.5-2.1
		c-1.2-0.6-2.4-1.1-3.5-1.9c-0.2-0.2-0.3-0.5-0.5-0.7c-0.4-0.5-0.9-0.9-1.4-1.3c-0.6-0.5-1.5-0.8-2.2-1.3c-0.9-0.6-1-2-1.3-3
		c-0.2-0.8-0.5-1.5-0.6-2.3c-0.2-0.8-0.2-1.6-0.2-2.4c-0.1-2-0.3-4-0.3-6c0-1.9,0.3-3.7,0.3-5.6c0-1-0.1-1.9-0.2-2.9
		c0-0.3,0-0.7,0-1c0-0.6-0.1-1.1-0.1-1.7c0-0.1,0.1-0.2,0.2-0.2c0.8,0,1.3,0.6,1.9,1.1c0.8,0.8,1.9,1.2,2.6,2
		c0.4,0.4,0.8,0.9,1.2,1.3c0.5,0.4,1.1,0.5,1.7,0.8c1.2,0.7,2.3,1.5,3.5,2.2c0.5,0.3,1.1,0.7,1.6,1.1c0.5,0.4,1.1,0.9,1.7,1
		c0.7,0.2,1.9,0.1,2.3,0.8c0.2,0.2,0.2,0.4,0.3,0.6c0.1,0.3,0.2,0.5,0.4,0.6c0.2,0.1,0.5,0.2,0.6,0.5c0.1,0.3,0,0.5,0.1,0.8
		c0.1,0.7,0.8,0.8,1.3,0.8c0.5,0,0.9,0.1,1.4,0.2c0.5,0.1,1.2,0.1,1.7,0.3c0.7,0.4,1.3,1.3,2.2,0.6c0.1-0.1,0.2-0.1,0.2,0
		c1,0.8,2.1,1.6,3.3,2.2c1,0.5,2.4,1,3.5,1c0.5,0,1.3-0.1,1.5-0.6c0.3-0.7,0.1-1.4-0.4-1.9c-0.6-0.5-1.2-0.9-1.6-1.6
		c-0.1-0.1,0-0.2,0.1-0.3c0.4-0.1,0.7,0,1.1,0.2c0.8,0.3,1.5,1.7,1.8,2.3c0.3,0.7,0.6,1.3,0.7,2.1c0.2,1.5,0.5,2.8,1,4.2
		c0.8,2.3,1.6,4.5,2.7,6.7c0.2,0.5,1.2,2.2,0,2.4c-0.9,0.1-2.1-0.7-2.9-1c-1.2-0.4-2.5-0.5-3.8-0.7c-1.2-0.2-2.1-0.5-3-1.3
		c-1.1-0.8-2.1-1.4-3.5-1.3c-0.9,0.1-1.4,0.3-2.2,0.8c-0.3,0.2-0.6,0.2-0.9,0.2c-0.6,0-1-0.9-1.2-1.3c-0.5-0.9-0.8-2-1.6-2.7
		c-0.3-0.3-0.6-0.6-0.9-0.8c-0.1-0.1-0.3-0.1-0.5-0.2c-0.9-0.2-1.1,0.3-1.6,0.7c-0.9,0.9-2,1.4-2.8,2.5c-0.6,0.8-1.4,1.5-1.9,2.3
		c-0.5,0.9-0.1,1.8,1.1,1.7c0.5,0,0.9-0.1,1.4,0c1.4,0.5,2.8,0.7,4.3,1c0.8,0.1,2-0.2,2.7,0.4c0.2,0.2,0.1,0.6,0.1,0.9
		c-0.1,1,0.6,1.4,1.5,1.4c1.2,0,2.3,0.1,3.4,0.5c1.3,0.4,2.6,1.1,3.9,1.4c1.4,0.3,2.7,0.6,4.1,0.7c0.8,0,1.5,0.3,2.3,0.3
		c0.6,0,1.2-0.1,1.8-0.2c0.6-0.1,1.1,0,1.7,0c0.9,0,1.3-0.3,1.9-0.8c0.9-0.7,2-1,2.7-1.9c0.4-0.5,0.4-0.8,0.7-1.5
		c0.1-0.2,0.1-0.3,0.1-0.5c0-0.6-0.4-1.1-0.2-1.7c0-0.1,0.1-0.1,0.2-0.1c0.9,0.1,1.7,0.5,2.6,0.8c0.6,0.2,1.4,0.4,2,0
		c0.3-0.2,0.7-0.5,1.1-0.7c0.4-0.2,0.8,0.1,1,0.5c0.4,0.8,0.1,1.7,1.4,1.7c1.2-0.1,2.1-0.3,3.1-0.9c1.1-0.7,2-1.5,3-2.3
		c0.9-0.8,1.9-1.2,2.9-1.8c1.1-0.7,1.9-1.5,2.7-2.4c0.4-0.4,0.8-0.8,1.3-1.2c0.4-0.3,0.9-0.5,1.3-0.8c0.4-0.3,0.6-0.9,0.3-1.3
		l-0.1-0.2c0-0.3,0.4-0.5,0.5-0.8c0.5-1.2,0.3-3.1-0.1-4.3c-0.4-1.4-1.1-2.2-2.3-2.9c-1.3-0.7-2.6-1.3-3.9-2
		c-1.1-0.6-2.3-1.3-3.4-1.9c-1-0.5-2.7-1-3.3-2c-0.1-0.2,0-0.4,0.1-0.6c0,0,0.4-0.4,0.8-0.7c0.5-0.4,0.6-0.6,0.8-1.1
		c0.2-0.4,0.4-1,0.9-2c0.5-1.1,1.3-3.7,1.4-4.2c0.1-0.5,0.5-2.8,1.1-3.4c0.6-0.6,0.9-0.9,1.1-1.3c0.2-0.5,0.5-1.4,0.6-2.7
		c0.1-1.4,0-2.2,0.3-2.7c0.3-0.6,1.9-3.1,2.3-3.8c0.3-0.5,1.2-1.7,2.3-3.6c2.6,2.1,5.3,3,8.7,3h0c8,0,17.4-3.8,20.9-5.3
		c0,0,0.7-0.2,1.5-0.2c0.3,0.1,0.4,0.1,0.9,0.1c0.4,0,0.6-0.1,1.2-0.2c0.4-0.1,0.7-0.2,0.8-0.3c0.3-0.1,0.6-0.3,1-0.3
		c1.7,0.1,1.9-1,2.3-2.3c0.1-0.4,0.8-1.9,1-2.4c0-0.1,0.2-0.5,0.2-1C427.1,97,427.2,96.6,426.4,96.1"/>
</g>
<g>
	<g>
		<path class="st0" d="M23,69.8c-1.7-2.7-4.6-4.5-8-4.5c-5.2,0-9.4,4.3-9.4,9.6c0,5.3,4.2,9.6,9.4,9.6c3.4,0,6.4-1.9,8-4.5l4.3,2.7
			c-2.6,4.1-7.2,6.8-12.3,6.8C6.7,89.4,0,83.1,0,74.9s6.7-14.6,14.9-14.6c5.2,0,9.7,2.7,12.3,6.8L23,69.8z"/>
	</g>
	<polygon class="st0" points="47.4,88.8 47.4,77.3 36.1,77.3 36.1,88.8 30.8,88.8 30.8,60.9 36.1,60.9 36.1,72.3 47.4,72.3 
		47.4,60.9 52.7,60.9 52.7,88.8 	"/>
	<polygon class="st0" points="79.1,83.7 79.1,88.8 58.6,88.8 58.6,60.9 79.1,60.9 79.1,66 63.9,66 63.9,72.3 76.5,72.3 76.5,77.4 
		63.9,77.4 63.9,83.7 	"/>
	<g>
		<path class="st0" d="M99.4,67.6c-1.6-1.3-3.9-2.2-6.6-2.2c-2.6,0-4.3,1.2-4.3,3c0,2,0.7,2.9,5.8,3.6c5.5,0.7,9,3.8,9,8.7
			c0,5.3-4.7,8.7-10.6,8.7c-4,0-7.6-1.4-10.3-3.6l3-4.2c1.7,1.7,4.4,2.8,7.3,2.8c3,0,5.1-1.4,5.1-3.6c0-1.5-0.4-3.3-5.8-4
			c-6.3-0.8-9.1-3.5-9.1-8.4c0-4.9,4.5-8.1,9.8-8.1c3.7,0,7,1.2,9.5,3.1L99.4,67.6z"/>
		<path class="st0" d="M279.7,67.6c-1.6-1.3-3.9-2.2-6.6-2.2c-2.6,0-4.3,1.2-4.3,3c0,2,0.7,2.9,5.8,3.6c5.5,0.7,9,3.8,9,8.7
			c0,5.3-4.7,8.7-10.5,8.7c-4,0-7.6-1.4-10.3-3.6l3-4.2c1.7,1.7,4.4,2.8,7.3,2.8c3,0,5.1-1.4,5.1-3.6c0-1.5-0.4-3.3-5.8-4
			c-6.3-0.8-9.1-3.5-9.1-8.4c0-4.9,4.4-8.1,9.8-8.1c3.7,0,7,1.2,9.5,3.1L279.7,67.6z"/>
	</g>
	<polygon class="st0" points="119.5,66 119.5,88.8 114.2,88.8 114.2,66 106,66 106,60.9 127.8,60.9 127.8,66 	"/>
	<polygon class="st0" points="152.8,83.7 152.8,88.8 132.4,88.8 132.4,60.9 152.8,60.9 152.8,66 137.7,66 137.7,72.3 150.3,72.3 
		150.3,77.4 137.7,77.4 137.7,83.7 	"/>
	<g>
		<path class="st0" d="M170.3,66h-7v8.9h7c2.4,0,4.3-2,4.3-4.5C174.6,68,172.7,66,170.3,66 M174.4,79.1l4.9,9.7h-5.9L169,80h-5.7
			v8.8H158V60.9h12.3c5.4,0,9.8,4.1,9.8,9.5C180.1,74.5,177.8,77.6,174.4,79.1"/>
	</g>
	<polygon class="st0" points="196.3,66 196.3,88.8 191.1,88.8 191.1,66 182.8,66 182.8,60.9 204.6,60.9 204.6,66 	"/>
	<g>
		<path class="st0" d="M220.3,65.4c-5.2,0-9.4,4.3-9.4,9.5c0,5.3,4.2,9.5,9.4,9.5c5.3,0,9.4-4.2,9.4-9.5
			C229.8,69.6,225.6,65.4,220.3,65.4 M220.3,89.4c-8.3,0-14.9-6.3-14.9-14.6c0-8.3,6.7-14.6,14.9-14.6c8.2,0,14.9,6.3,14.9,14.6
			C235.3,83.1,228.6,89.4,220.3,89.4"/>
	</g>
	<polygon class="st0" points="253,60.9 253,79.5 252.9,79.5 241.8,61.1 241.8,24.3 240.1,24.3 240.1,125.4 241.8,125.4 241.8,70.2 
		253,88.8 258.3,88.8 258.3,60.9 	"/>
	<g>
		<path class="st0" d="M23,69.8c-1.7-2.7-4.6-4.5-8-4.5c-5.2,0-9.4,4.3-9.4,9.6c0,5.3,4.2,9.6,9.4,9.6c3.4,0,6.4-1.9,8-4.5l4.3,2.7
			c-2.6,4.1-7.2,6.8-12.3,6.8C6.7,89.4,0,83.1,0,74.9s6.7-14.6,14.9-14.6c5.2,0,9.7,2.7,12.3,6.8L23,69.8z"/>
	</g>
	<polygon class="st0" points="47.4,88.8 47.4,77.3 36.1,77.3 36.1,88.8 30.8,88.8 30.8,60.9 36.1,60.9 36.1,72.3 47.4,72.3 
		47.4,60.9 52.7,60.9 52.7,88.8 	"/>
	<polygon class="st0" points="79.1,83.7 79.1,88.8 58.6,88.8 58.6,60.9 79.1,60.9 79.1,66 63.9,66 63.9,72.3 76.5,72.3 76.5,77.4 
		63.9,77.4 63.9,83.7 	"/>
	<g>
		<path class="st0" d="M99.4,67.6c-1.6-1.3-3.9-2.2-6.6-2.2c-2.6,0-4.3,1.2-4.3,3c0,2,0.7,2.9,5.8,3.6c5.5,0.7,9,3.8,9,8.7
			c0,5.3-4.7,8.7-10.6,8.7c-4,0-7.6-1.4-10.3-3.6l3-4.2c1.7,1.7,4.4,2.8,7.3,2.8c3,0,5.1-1.4,5.1-3.6c0-1.5-0.4-3.3-5.8-4
			c-6.3-0.8-9.1-3.5-9.1-8.4c0-4.9,4.5-8.1,9.8-8.1c3.7,0,7,1.2,9.5,3.1L99.4,67.6z"/>
		<path class="st0" d="M279.7,67.6c-1.6-1.3-3.9-2.2-6.6-2.2c-2.6,0-4.3,1.2-4.3,3c0,2,0.7,2.9,5.8,3.6c5.5,0.7,9,3.8,9,8.7
			c0,5.3-4.7,8.7-10.5,8.7c-4,0-7.6-1.4-10.3-3.6l3-4.2c1.7,1.7,4.4,2.8,7.3,2.8c3,0,5.1-1.4,5.1-3.6c0-1.5-0.4-3.3-5.8-4
			c-6.3-0.8-9.1-3.5-9.1-8.4c0-4.9,4.4-8.1,9.8-8.1c3.7,0,7,1.2,9.5,3.1L279.7,67.6z"/>
	</g>
	<polygon class="st0" points="119.5,66 119.5,88.8 114.2,88.8 114.2,66 106,66 106,60.9 127.8,60.9 127.8,66 	"/>
	<polygon class="st0" points="152.8,83.7 152.8,88.8 132.4,88.8 132.4,60.9 152.8,60.9 152.8,66 137.7,66 137.7,72.3 150.3,72.3 
		150.3,77.4 137.7,77.4 137.7,83.7 	"/>
	<g>
		<path class="st0" d="M170.3,66h-7v8.9h7c2.4,0,4.3-2,4.3-4.5C174.6,68,172.7,66,170.3,66 M174.4,79.1l4.9,9.7h-5.9L169,80h-5.7
			v8.8H158V60.9h12.3c5.4,0,9.8,4.1,9.8,9.5C180.1,74.5,177.8,77.6,174.4,79.1"/>
	</g>
	<polygon class="st0" points="196.3,66 196.3,88.8 191.1,88.8 191.1,66 182.8,66 182.8,60.9 204.6,60.9 204.6,66 	"/>
	<g>
		<path class="st0" d="M220.3,65.4c-5.2,0-9.4,4.3-9.4,9.5c0,5.3,4.2,9.5,9.4,9.5c5.3,0,9.4-4.2,9.4-9.5
			C229.8,69.6,225.6,65.4,220.3,65.4 M220.3,89.4c-8.3,0-14.9-6.3-14.9-14.6c0-8.3,6.7-14.6,14.9-14.6c8.2,0,14.9,6.3,14.9,14.6
			C235.3,83.1,228.6,89.4,220.3,89.4"/>
	</g>
	<polygon class="st0" points="253,60.9 253,79.5 252.9,79.5 241.8,61.1 241.8,24.3 240.1,24.3 240.1,125.4 241.8,125.4 241.8,70.2 
		253,88.8 258.3,88.8 258.3,60.9 	"/>
	<g>
		<path class="st0" d="M140.4,102h-7v8.9h7c2.4,0,4.3-2,4.3-4.5C144.7,104,142.8,102,140.4,102 M140.4,116h-7v8.8h-5.3V96.9h12.3
			c5.4,0,9.8,4.1,9.8,9.5C150.2,111.9,145.8,116,140.4,116"/>
		<path class="st0" d="M167.7,101.3c-5.2,0-9.4,4.3-9.4,9.5c0,5.3,4.2,9.5,9.4,9.5c5.3,0,9.4-4.2,9.4-9.5
			C177.2,105.6,173,101.3,167.7,101.3 M167.7,125.4c-8.3,0-14.9-6.3-14.9-14.6c0-8.3,6.7-14.6,14.9-14.6c8.3,0,15,6.3,15,14.6
			C182.7,119.1,176,125.4,167.7,125.4"/>
	</g>
	<polygon class="st0" points="205.4,124.8 186.2,124.8 186.2,96.9 191.5,96.9 191.5,119.8 205.4,119.8 	"/>
	<g>
		<path class="st0" d="M220.3,101.3c-5.2,0-9.4,4.3-9.4,9.5c0,5.3,4.2,9.5,9.4,9.5c5.3,0,9.4-4.2,9.4-9.5
			C229.8,105.6,225.6,101.3,220.3,101.3 M220.3,125.4c-8.3,0-14.9-6.3-14.9-14.6c0-8.3,6.7-14.6,14.9-14.6c8.3,0,14.9,6.3,14.9,14.6
			C235.3,119.1,228.6,125.4,220.3,125.4"/>
	</g>
	<rect x="128.1" y="134.9" class="st0" width="2.2" height="11.7"/>
	<polygon class="st0" points="140.4,134.9 140.4,142.7 140.3,142.7 135.6,134.9 133.4,134.9 133.4,146.6 135.6,146.6 135.6,138.8 
		135.6,138.8 140.4,146.6 142.6,146.6 142.6,134.9 	"/>
	<polygon class="st0" points="150.4,134.9 150.4,137 153.8,137 153.8,146.6 156,146.6 156,137 159.5,137 159.5,134.9 	"/>
	<polygon class="st0" points="168.8,134.9 168.8,139.7 164.1,139.7 164.1,134.9 161.9,134.9 161.9,146.6 164.1,146.6 164.1,141.8 
		168.8,141.8 168.8,146.6 171.1,146.6 171.1,134.9 	"/>
	<polygon class="st0" points="174.1,134.9 174.1,146.6 182.7,146.6 182.7,144.5 176.4,144.5 176.4,141.8 181.7,141.8 181.7,139.7 
		176.4,139.7 176.4,137 182.7,137 182.7,134.9 	"/>
	<g>
		<path class="st0" d="M196,137h-2.9v3.7h2.9c1,0,1.8-0.8,1.8-1.9C197.8,137.9,197,137,196,137 M196,142.9h-2.9v3.7h-2.2v-11.7h5.1
			c2.3,0,4.1,1.7,4.1,4C200.1,141.2,198.2,142.9,196,142.9"/>
	</g>
	<path class="st0" d="M205.8,137.6h0.1l1.4,4.8h-2.9L205.8,137.6z M204.7,134.9l-4.1,11.7h2.4l0.7-2.1h4.4l0.7,2.1h2.4l-4.1-11.7
		H204.7z"/>
	<g>
		<path class="st0" d="M218.7,137h-2.9v3.7h2.9c1,0,1.8-0.8,1.8-1.9S219.7,137,218.7,137 M220.5,142.5l2,4.1h-2.5l-1.9-3.7h-2.4v3.7
			h-2.2v-11.7h5.1c2.3,0,4.1,1.7,4.1,4C222.8,140.6,221.9,141.9,220.5,142.5"/>
	</g>
	<polygon class="st0" points="232.5,134.9 227.8,140.8 227.8,134.9 225.6,134.9 225.6,146.6 227.8,146.6 227.8,140.8 232.5,146.6 
		235.3,146.6 230.6,140.8 235.3,134.9 	"/>
	<g>
		<path class="st1" d="M10.4,31.7c5.5,0,9.5,3.6,9.5,9.3s-4,9.3-9.5,9.3S0.8,46.6,0.8,41S4.9,31.7,10.4,31.7z M10.4,46.7
			c3.3,0,5.5-2.4,5.5-5.7s-2.2-5.7-5.5-5.7S4.9,37.7,4.9,41S7,46.7,10.4,46.7z"/>
		<path class="st1" d="M22.7,32.2h11.8v3.6h-7.9v3.6h7.3v3.6h-7.3v6.9h-3.9V32.2z"/>
		<path class="st1" d="M37.4,32.2h11.8v3.6h-7.9v3.6h7.3v3.6h-7.3v6.9h-3.9V32.2z"/>
		<path class="st1" d="M52,32.2h3.9v17.6H52V32.2z"/>
		<path class="st1" d="M71,36.8c-0.8-0.9-1.9-1.4-3.3-1.4c-2.9,0-5.1,2.4-5.1,5.7s2.2,5.7,5,5.7c1.6,0,2.8-0.7,3.6-1.9l3.2,2.4
			c-1.5,2.1-4,3.1-6.4,3.1c-5.5,0-9.5-3.6-9.5-9.3s4-9.3,9.5-9.3c2,0,4.5,0.7,6,2.6L71,36.8z"/>
		<path class="st1" d="M76.4,32.2h3.9v17.6h-3.9V32.2z"/>
		<path class="st1" d="M89.7,32.2h3.2l7.7,17.6h-4.4l-1.5-3.7h-6.8l-1.5,3.7H82L89.7,32.2z M91.2,37.3L89,42.8h4.3L91.2,37.3z"/>
		<path class="st1" d="M102.5,32.2h3.9v14h7.2v3.6h-11.1V32.2z"/>
		<path class="st1" d="M123.1,32.2h6.5c3.7,0,6.7,1.2,6.7,5.4c0,4.1-2.8,5.4-6.5,5.4H127v6.9h-3.9V32.2z M127,39.7h2.6
			c1.4,0,2.7-0.5,2.7-2.1c0-1.8-1.8-2.1-3.3-2.1h-2V39.7z"/>
		<path class="st1" d="M142.3,32.2h3.2l7.7,17.6h-4.4l-1.5-3.7h-6.8l-1.5,3.7h-4.3L142.3,32.2z M143.8,37.3l-2.1,5.5h4.3L143.8,37.3
			z"/>
		<path class="st1" d="M154.9,32.2h6.8c3.6,0,6.6,1.2,6.6,5.4c0,2.5-1.3,4.4-3.8,4.8l4.5,7.4h-4.7l-3.7-7h-1.9v7h-3.9V32.2z
			 M158.8,39.5h2.3c1.4,0,3.3,0,3.3-2c0-1.8-1.6-2-3-2h-2.5V39.5z"/>
		<path class="st1" d="M174,35.6h-5v-3.4h13.9v3.4h-5v14.2H174V35.6z"/>
		<path class="st1" d="M184.9,32.2h5.3l7.5,12.3h0V32.2h3.9v17.6h-5.1l-7.7-12.6h0v12.6h-3.9V32.2z"/>
		<path class="st1" d="M205.4,32.2h12v3.6h-8.1v3.3h7.6v3.6h-7.6v3.6h8.5v3.6h-12.4V32.2z"/>
		<path class="st1" d="M220.9,32.2h6.8c3.6,0,6.6,1.2,6.6,5.4c0,2.5-1.3,4.4-3.8,4.8l4.5,7.4h-4.7l-3.7-7h-1.9v7h-3.9V32.2z
			 M224.8,39.5h2.3c1.4,0,3.3,0,3.3-2c0-1.8-1.6-2-3-2h-2.5V39.5z"/>
	</g>
</g>
</svg>
